<svg width="426" height="263" viewBox="0 0 426 263" fill="none" xmlns="http://www.w3.org/2000/svg">
<g clip-path="url(#clip0_364_294)">
<path d="M252.799 145.146C239.997 151.745 237.232 168.621 240.065 181.162C242.899 193.703 250.828 203.091 262.788 208.166C271.222 211.739 279.692 212.305 289.136 211.759C300.804 211.057 313.397 207.999 319.631 205.902C334.436 200.929 355.732 189.204 346.42 177.527C338.135 167.141 322.191 160.536 310.733 154.279C293.896 144.937 273.049 135.295 254.397 145.709L252.799 145.146Z" fill="#825DA7"/>
<path d="M346.771 183.564C346.909 183.546 345.649 186.084 345.502 186.294C344.66 187.425 343.595 188.37 342.519 189.255C339.65 191.576 336.385 193.433 333.123 195.137C326.158 198.788 318.869 201.889 311.427 204.447C299.39 208.59 286.512 210.699 273.861 208.361C263.051 206.37 252.895 200.845 247.063 191.243C245.57 188.785 244.41 186.162 243.537 183.428C240.356 173.52 242.034 160.501 246.753 151.23C247.781 149.218 250.246 148.209 251.248 149.669C269.415 176.275 301.521 175.886 340.493 184.246L346.774 183.545L346.771 183.564Z" fill="#F2EC5F"/>
<path d="M306.281 179.77C305.765 190.661 299.527 200.675 289.687 205.372C284.807 207.707 279.711 208.755 275.579 208.362C247.428 205.74 238.491 181.761 244.2 162.711C248.117 149.692 255.779 146.819 266.545 151.738C275.767 156.392 288.549 160.603 299.537 169.146C302.952 171.79 305.316 175.554 306.3 179.772L306.281 179.77Z" fill="#F2F1F3"/>
<path d="M245.293 163.026C243.66 170.741 243.95 180.611 247.719 188.482C252.198 197.963 260.958 204.19 271.155 206.014C278.186 207.701 295.039 205.211 290.12 195.048C285.398 188.273 276.749 184.977 269.001 179.883C263.875 176.795 259.579 172.38 256.15 167.591C253.83 165.108 250.112 155.97 246.992 159.606L245.296 163.007L245.293 163.026Z" fill="#D8F0F8"/>
<path d="M262.604 182.826C261.073 186.019 255.983 187.686 253.299 186.501C250.616 185.316 249.452 180.878 250.979 177.703C252.506 174.529 257.143 173.722 259.848 174.891C262.553 176.06 264.134 179.633 262.604 182.826Z" fill="#2C292E"/>
<path d="M360.085 183.354C325.379 190.931 274.987 184.352 249.761 152.83C248.718 151.518 247.541 149.936 246.745 148.912C243.943 145.238 242.734 142.164 257.343 135.096C269.146 129.394 283.929 127.063 298.012 130.035C314.754 133.572 343.002 162.661 349.853 168.338C351.782 169.934 357.826 174.141 360.431 176.782C362.097 178.455 362.512 182.204 360.348 183.142L360.088 183.335L360.085 183.354Z" fill="#825DA7"/>
<path d="M234.901 149.762C247.741 149.096 247.731 147.589 252.888 145.333" stroke="#2C292E" stroke-width="2" stroke-miterlimit="10" stroke-linecap="round"/>
<path d="M239.102 156.402C245.211 155.947 251.578 152.69 254.771 150.398" stroke="#2C292E" stroke-width="2" stroke-miterlimit="10" stroke-linecap="round"/>
<path d="M245.426 163.701C250.353 162.493 257.089 157.901 260.63 155.871" stroke="#2C292E" stroke-width="2" stroke-miterlimit="10" stroke-linecap="round"/>
<path d="M253.072 170.017C258.972 168.623 263.73 163.296 266.927 160.985" stroke="#2C292E" stroke-width="2" stroke-miterlimit="10" stroke-linecap="round"/>
<path d="M261.236 175.829C264.419 173.476 270.822 168.256 273.668 165.7" stroke="#2C292E" stroke-width="2" stroke-miterlimit="10" stroke-linecap="round"/>
<path d="M269.867 181.091C272.702 178.475 278.329 172.755 280.806 169.952" stroke="#2C292E" stroke-width="2" stroke-miterlimit="10" stroke-linecap="round"/>
<path d="M278.926 185.798C281.39 182.955 286.216 176.769 288.316 173.775" stroke="#2C292E" stroke-width="2" stroke-miterlimit="10" stroke-linecap="round"/>
<path d="M288.386 189.889C290.453 186.852 294.473 180.239 296.173 177.071" stroke="#2C292E" stroke-width="2" stroke-miterlimit="10" stroke-linecap="round"/>
<path d="M298.207 193.356C299.875 190.145 303.056 183.197 304.357 179.854" stroke="#2C292E" stroke-width="2" stroke-miterlimit="10" stroke-linecap="round"/>
<path d="M308.354 196.177C309.62 192.81 311.919 185.559 312.81 182.117" stroke="#2C292E" stroke-width="2" stroke-miterlimit="10" stroke-linecap="round"/>
<path d="M319.191 196.53C319.993 193.037 321.044 187.322 321.527 183.763" stroke="#2C292E" stroke-width="2" stroke-miterlimit="10" stroke-linecap="round"/>
<path d="M330.242 194.772C330.539 191.166 330.398 188.442 330.443 184.838" stroke="#2C292E" stroke-width="2" stroke-miterlimit="10" stroke-linecap="round"/>
<path d="M340.246 190.408C339.739 187.283 340.083 188.492 339.533 185.264" stroke="#2C292E" stroke-width="2" stroke-miterlimit="10" stroke-linecap="round"/>
</g>
<g clip-path="url(#clip1_364_294)">
<path d="M65.1478 56.9277C60.4385 63.002 64.4748 74.0347 67.0308 81.011C71.8473 94.1896 80.8865 101.618 87.032 106.548C94.6704 112.68 114.372 128.463 140.653 125.072C156.471 123.031 167.178 115.002 174.069 109.846C183.234 102.99 190.751 97.3577 190.135 91.2346C189.348 83.5015 176.081 79.7737 141.169 69.9204C83.9657 53.795 70.5208 49.9876 65.1478 56.9277Z" fill="#825DA7"/>
<path d="M189.042 85.7681C188.862 87.5919 189.348 89.5846 187.392 92.6611C176.001 110.781 155.143 118.058 154.096 118.41C144.226 121.721 135.404 122.155 129.643 121.919C132.712 120.959 135.601 119.526 138.194 117.733C147.577 111.188 154.791 98.1397 151.718 86.5605C158.952 86.7351 166.737 86.5503 176.22 86.3258C182.308 86.1807 185.563 86.0668 189.042 85.7681Z" fill="#F2EC5F"/>
<path d="M94.1423 109.235C92.93 108.329 92.072 107.603 91.5763 107.182C90.6814 106.411 88.6088 104.593 85.8738 101.53C82.0367 97.2832 73.4793 89.1571 69.7449 79.0439C67.2998 72.4096 63.9682 63.6602 65.9907 56.9694C69.2599 60.271 72.0665 61.7682 76.4708 64.8712C81.3972 68.3359 85.7062 70.5191 89.0426 72.0893C92.7557 73.8206 96.3458 75.333 99.7515 76.6203C95.7115 79.8845 92.5792 84.2107 91.1973 89.6404C89.4756 96.4229 90.8698 103.45 94.1218 109.233L94.1423 109.235Z" fill="#ECE434"/>
<path d="M138.192 117.754C135.599 119.547 132.71 120.98 129.641 121.939C126.595 121.825 124.414 121.528 123.333 121.38C109.038 119.289 98.8909 112.827 94.1423 109.235C90.8903 103.452 89.4961 96.4248 91.2178 89.6424C92.5997 84.2127 95.732 79.8865 99.772 76.6222C109.811 80.4044 118.211 82.3699 122.764 83.3357C133.185 85.5417 141.923 86.3818 151.716 86.5809C154.79 98.1602 147.575 111.209 138.192 117.754Z" fill="#F2F1F3"/>
<path d="M142.739 89.214C142.29 84.9695 134.726 81.6381 131.117 79.6893C121.301 75.329 111.9 74.5064 103.545 80.056C98.5637 83.4345 94.3714 89.0839 93.1742 94.9456C92.504 98.6039 92.7391 103.138 96.9573 101.629C100.868 99.8831 104.253 94.6714 108.348 92.7368C114.166 89.6683 121.293 89.46 128.198 90.6576C135.104 91.8551 141.092 92.0932 142.725 89.3574L142.739 89.214Z" fill="#D8F0F8"/>
<path d="M120.099 105.554C118.616 109.07 114.729 111.419 111.781 110.301C108.834 109.183 105.556 105.135 107.018 101.617C108.48 98.0989 112.748 96.9261 115.715 98.0461C118.683 99.1661 121.582 102.038 120.119 105.556L120.099 105.554Z" fill="#2C292E"/>
<path d="M190.394 85.6737C188.319 87.0212 182.306 86.2012 176.219 86.3464C166.735 86.5708 158.95 86.7556 151.716 86.581C141.923 86.3819 133.185 85.5417 122.764 83.3357C118.211 82.37 109.811 80.4045 99.7719 76.6223C96.3663 75.335 92.7762 73.8227 89.0631 72.0913C85.7266 70.5212 81.4177 68.338 76.4912 64.8732C72.8978 62.3467 69.1303 59.6996 66.091 57C64.8171 55.8814 64.4444 54.0032 65.2894 52.5553C65.2894 52.5553 65.2894 52.5553 65.2914 52.5348C68.5019 46.9956 78.5277 45.459 98.5404 42.3612C114.902 39.8349 123.063 38.5697 131.894 40.557C149.296 44.4645 162.475 56.2116 167.259 60.49C170.012 62.9544 170.133 63.4009 174.369 67.17C184.945 76.6123 189.673 78.7334 190.361 83.7048C190.443 84.3337 191.167 85.1705 190.394 85.6737Z" fill="#825DA7"/>
<path d="M74.1331 58.8267C68.8725 61.0604 62.4057 63.7959 57.1452 66.0296" stroke="#2C292E" stroke-width="2" stroke-miterlimit="10" stroke-linecap="round"/>
<path d="M82.1444 63.8989C77.625 66.578 72.0754 69.8591 67.556 72.5381" stroke="#2C292E" stroke-width="2" stroke-miterlimit="10" stroke-linecap="round"/>
<path d="M90.5046 68.3642C86.7528 71.4292 82.1468 75.1964 78.395 78.2615" stroke="#2C292E" stroke-width="2" stroke-miterlimit="10" stroke-linecap="round"/>
<path d="M99.212 72.2428C96.2544 75.6344 92.6391 79.8302 89.6815 83.2218" stroke="#2C292E" stroke-width="2" stroke-miterlimit="10" stroke-linecap="round"/>
<path d="M117.346 78.1465C116.052 82.0538 114.465 86.8425 113.173 90.7293" stroke="#2C292E" stroke-width="2" stroke-miterlimit="10" stroke-linecap="round"/>
<path d="M126.691 80.1637C126.25 84.2168 125.697 89.2105 125.254 93.2842" stroke="#2C292E" stroke-width="2" stroke-miterlimit="10" stroke-linecap="round"/>
<path d="M136.163 81.5312C136.579 85.6898 137.085 90.8295 137.502 94.988" stroke="#2C292E" stroke-width="2" stroke-miterlimit="10" stroke-linecap="round"/>
<path d="M145.676 82.2615C146.956 86.4636 148.511 91.6447 149.789 95.8674" stroke="#2C292E" stroke-width="2" stroke-miterlimit="10" stroke-linecap="round"/>
<path d="M155.194 82.3096C157.321 86.5124 159.932 91.6733 162.061 95.8557" stroke="#2C292E" stroke-width="2" stroke-miterlimit="10" stroke-linecap="round"/>
<path d="M164.696 81.6936C167.678 85.8151 171.332 90.8719 174.314 94.9934" stroke="#2C292E" stroke-width="2" stroke-miterlimit="10" stroke-linecap="round"/>
<path d="M174.082 80.363C177.904 84.3398 182.607 89.2309 186.407 93.2262" stroke="#2C292E" stroke-width="2" stroke-miterlimit="10" stroke-linecap="round"/>
<path d="M108.166 75.5043C106.027 79.1834 103.413 83.7054 101.294 87.3866" stroke="#2C292E" stroke-width="2" stroke-miterlimit="10" stroke-linecap="round"/>
</g>
<defs>
<clipPath id="clip0_364_294">
<rect width="132" height="84" fill="white" transform="translate(237.188 121) rotate(8.34278)"/>
</clipPath>
<clipPath id="clip1_364_294">
<rect width="137" height="85" fill="white" transform="translate(58.333 33) rotate(5.62613)"/>
</clipPath>
</defs>
</svg>
